# xmcd
#
# Track frame offsets:
#	150
#	19015
#	47257
#	67367
#	87622
#	107592
#
# Disc length: 1710 seconds
# Revision: 0
# Processed by: cddbd v1.5.2PL0 Copyright (c) Steve Scherf et al.
# Submitted via: dBpowerAMP V12.0
#
DISCID=4a06ac06
DTITLE=The Isley Brothers feat. Ronald Isley and Angela Winbush - Floatin' on Your Love
DYEAR=1996
DGENRE=R&B
TTITLE0=Floating on Your Love
TTITLE1=Floating on Your Love (Bone Idol Mix)
TTITLE2=Floating on Your Love (Soul in 82 Mix)
TTITLE3=Floating on Your Love (Soul to Staten Island Mix)
TTITLE4=Floating on Your Love (Bad Boy Remix)
TTITLE5=Floating on Your Love (Float N' Slow Bad Boy Remix)
EXTD=
EXTT0=
EXTT1=
EXTT2=
EXTT3=
EXTT4=
EXTT5=
PLAYORDER=
